<?xml version="1.0" encoding="UTF-8"?>
<svg width="800px" height="192px" viewBox="0 0 800 192" version="1.1" xmlns="http://www.w3.org/2000/svg" xmlns:xlink="http://www.w3.org/1999/xlink">
    <title>Group</title>
    <g id="Page-1" stroke="none" stroke-width="1" fill="none" fill-rule="evenodd">
        <g id="Frame-2" transform="translate(-9304, -7614)">
            <g id="Group" transform="translate(9304, 7614)">
                <g transform="translate(0, -24)">
                    <g id="ImSpace" transform="translate(188, 0)" fill="#FFFFFF" fill-rule="nonzero">
                        <path d="M112.702148,167.206055 C118.732422,167.206055 122.287109,163.524414 122.287109,157.240234 L122.287109,83.1630859 C122.287109,76.8154297 118.732422,73.1337891 112.702148,73.1337891 C106.671875,73.1337891 103.117188,76.8154297 103.117188,83.1630859 L103.117188,157.240234 C103.117188,163.524414 106.671875,167.206055 112.702148,167.206055 Z" id="Path"></path>
                        <path d="M145.202148,167.333008 C150.661133,167.333008 154.469727,163.96875 154.469727,157.68457 L154.469727,124.930664 C154.469727,117.313477 159.230469,111.981445 166.276367,111.981445 C173.131836,111.981445 177.257813,116.297852 177.257813,123.597656 L177.257813,157.68457 C177.257813,163.96875 180.685547,167.333008 186.144531,167.333008 C191.666992,167.333008 195.094727,163.96875 195.094727,157.68457 L195.094727,124.676758 C195.094727,117.123047 199.728516,111.981445 206.774414,111.981445 C213.947266,111.981445 217.882812,116.297852 217.882812,124.168945 L217.882812,157.68457 C217.882812,163.96875 221.62793,167.333008 227.086914,167.333008 C232.609375,167.333008 236.417969,163.96875 236.417969,157.68457 L236.417969,119.535156 C236.417969,105.824219 227.467773,96.6835938 214.137695,96.6835938 C204.171875,96.6835938 196.046875,102.079102 193,110.648438 L192.619141,110.648438 C190.333984,101.761719 183.478516,96.6835938 173.639648,96.6835938 C164.37207,96.6835938 157.072266,102.079102 154.21582,110.267578 L153.834961,110.267578 L153.834961,106.014648 C153.834961,99.7939453 150.15332,96.5566406 144.884766,96.5566406 C139.616211,96.5566406 135.93457,99.7939453 135.93457,106.014648 L135.93457,157.68457 C135.93457,163.96875 139.679688,167.333008 145.202148,167.333008 Z" id="Path"></path>
                        <path d="M283.263672,167.523438 C306.115234,167.523438 320.143555,156.224609 320.143555,138.324219 C320.143555,124.422852 311.764648,116.615234 292.34082,112.743164 L282.692383,110.775391 C271.837891,108.617188 267.458008,105.125977 267.458008,99.4765625 C267.458008,92.7480469 273.742188,88.3046875 283.200195,88.3046875 C291.071289,88.3046875 296.974609,91.1611328 300.021484,98.0800781 C302.179688,102.015625 304.845703,103.729492 309.162109,103.729492 C314.049805,103.729492 317.350586,100.619141 317.350586,96.0488281 C317.350586,94.3984375 317.09668,93.0654297 316.652344,91.7958984 C312.589844,79.8623047 299.958008,72.8164062 283.200195,72.8164062 C262.824219,72.8164062 248.224609,83.9248047 248.224609,100.682617 C248.224609,114.330078 257.174805,123.089844 275.456055,126.708008 L285.167969,128.612305 C296.657227,130.960938 300.973633,134.388672 300.973633,140.418945 C300.973633,147.147461 293.991211,152.098633 283.708008,152.098633 C274.948242,152.098633 267.775391,148.924805 264.791992,141.942383 C262.506836,137.879883 259.904297,136.356445 255.96875,136.356445 C251.017578,136.356445 247.526367,139.720703 247.526367,144.798828 C247.526367,146.512695 247.907227,148.290039 248.541992,149.94043 C252.223633,159.969727 264.347656,167.523438 283.263672,167.523438 Z" id="Path"></path>
                        <path d="M339.503906,190.248047 C344.962891,190.248047 348.771484,186.947266 348.771484,180.599609 L348.771484,154.574219 L349.152344,154.574219 C352.770508,162.254883 360.387695,167.079102 370.290039,167.079102 C387.301758,167.079102 397.838867,153.875977 397.838867,131.976562 C397.838867,110.013672 387.238281,96.8740234 369.972656,96.8740234 C360.133789,96.8740234 352.580078,101.825195 348.898438,109.823242 L348.517578,109.823242 L348.517578,106.141602 C348.517578,99.8574219 344.708984,96.5566406 339.376953,96.5566406 C334.044922,96.5566406 330.236328,99.8574219 330.236328,106.078125 L330.236328,180.599609 C330.236328,186.947266 334.108398,190.248047 339.503906,190.248047 Z M363.751953,152.162109 C354.674805,152.162109 348.708008,144.291016 348.708008,131.976562 C348.708008,119.789063 354.674805,111.727539 363.751953,111.727539 C373.019531,111.727539 378.859375,119.662109 378.859375,131.976562 C378.859375,144.354492 373.019531,152.162109 363.751953,152.162109 Z" id="Shape"></path>
                        <path d="M427.482422,167.079102 C435.988281,167.079102 444.494141,162.826172 448.302734,155.589844 L448.683594,155.589844 L448.683594,159.081055 C449.064453,164.540039 452.555664,167.333008 457.570312,167.333008 C462.838867,167.333008 466.583984,164.15918 466.583984,158.001953 L466.583984,119.217773 C466.583984,105.506836 455.22168,96.4931641 437.765625,96.4931641 C423.673828,96.4931641 412.755859,101.507812 409.582031,109.632812 C408.947266,111.029297 408.629883,112.362305 408.629883,113.822266 C408.629883,118.011719 411.867188,120.931641 416.374023,120.931641 C419.357422,120.931641 421.706055,119.789062 423.737305,117.503906 C427.863281,112.171875 431.291016,110.331055 436.94043,110.331055 C443.922852,110.331055 448.366211,114.012695 448.366211,120.360352 L448.366211,124.867187 L431.227539,125.882812 C414.21582,126.898437 404.694336,134.071289 404.694336,146.449219 C404.694336,158.700195 414.533203,167.079102 427.482422,167.079102 Z M433.576172,153.685547 C427.355469,153.685547 423.166016,150.511719 423.166016,145.433594 C423.166016,140.609375 427.101562,137.499023 434.020508,136.991211 L448.366211,136.102539 L448.366211,141.053711 C448.366211,148.416992 441.701172,153.685547 433.576172,153.685547 Z" id="Shape"></path>
                        <path d="M509.557617,167.459961 C522.570312,167.459961 534.186523,160.985352 538.249023,151.717773 C539.074219,149.876953 539.455078,148.353516 539.455078,146.893555 C539.455078,142.323242 535.963867,139.466797 531.647461,139.466797 C527.711914,139.466797 525.680664,141.053711 523.205078,144.925781 C520.348633,149.75 516.349609,152.923828 509.875,152.923828 C500.607422,152.923828 494.831055,145.306641 494.831055,131.913086 C494.831055,118.773438 500.607422,111.029297 510.001953,111.029297 C515.905273,111.029297 520.03125,113.758789 523.395508,119.725586 C525.299805,123.089844 527.521484,124.549805 531.203125,124.549805 C535.583008,124.549805 539.137695,121.883789 539.137695,117.313477 C539.137695,115.980469 538.756836,114.330078 538.12207,112.743164 C534.44043,103.094727 523.078125,96.4931641 509.430664,96.4931641 C488.991211,96.4931641 476.041992,110.204102 476.041992,131.976562 C476.041992,154.00293 489.054688,167.459961 509.557617,167.459961 Z" id="Path"></path>
                        <path d="M580.651367,167.459961 C593.791016,167.459961 604.328125,162.508789 608.834961,154.129883 C609.660156,152.606445 610.104492,151.083008 610.104492,149.623047 C610.104492,145.370117 606.867188,142.831055 602.868164,142.831055 C600.456055,142.831055 598.805664,143.529297 596.837891,145.560547 C591.823242,151.463867 587.379883,153.749023 580.587891,153.749023 C571.193359,153.749023 565.099609,147.147461 565.099609,137.054688 L565.099609,136.229492 L603.947266,136.229492 C609.088867,136.229492 612.008789,133.30957 612.008789,128.167969 C612.008789,109.696289 599.05957,96.4931641 579.762695,96.4931641 C559.640625,96.4931641 546.881836,110.394531 546.881836,132.293945 C546.881836,154.320313 559.386719,167.459961 580.651367,167.459961 Z M565.290039,124.867188 C565.924805,116.170898 571.828125,110.204102 579.953125,110.204102 C588.078125,110.204102 593.791016,115.980469 594.171875,124.867188 L565.290039,124.867188 Z" id="Shape"></path>
                    </g>
                    <g id="Logo_Stories" transform="translate(42, 76)">
                        <path d="M131.214981,23.3988764 C131.214981,30.9222181 126.405133,37.5496996 119.347271,40.0153162 L115.047776,41.5173158 L115.498546,46.0492544 C115.622394,47.2943998 115.684617,48.5541088 115.684617,49.8258427 C115.684617,73.1077767 94.6753929,92.2149811 68.5,92.2149811 C42.3246071,92.2149811 21.3153833,73.1077767 21.3153833,49.8258427 C21.3153833,48.5564573 21.3773756,47.2947391 21.5005589,46.0428332 L21.946039,41.51544 L17.6513341,40.0150229 C10.5947158,37.5496915 5.78501889,30.9220443 5.78501889,23.3988764 C5.78501889,13.680645 13.7393582,5.78501889 23.5728745,5.78501889 C28.8989642,5.78501889 33.8271066,8.10882394 37.1901735,12.065585 L40.2180808,15.6280195 L44.3364846,13.4148967 C51.5766936,9.52419731 59.8591382,7.43670428 68.5,7.43670428 C77.1407597,7.43670428 85.4233229,9.52414313 92.6653286,13.415098 L96.7842628,15.6281018 L99.811859,12.0648637 C103.173229,8.10880081 108.101038,5.78501889 113.427126,5.78501889 C123.260642,5.78501889 131.214981,13.680645 131.214981,23.3988764 Z" id="Combined-Shape" stroke="#FFFFFF" stroke-width="11.5700378"></path>
                        <ellipse id="Oval" fill="#FFFFFF" fill-rule="evenodd" cx="68.6388405" cy="62.5956844" rx="9.49280732" ry="7.35854403"></ellipse>
                    </g>
                    <g id="􀎼" opacity="0.5" transform="translate(-25, 0)" fill="#FFFFFF" fill-rule="nonzero">
                        <path d="M25.3945312,78.1835938 L25.3945312,59.7265625 C25.3945312,52.3697917 26.8268229,46.0221354 29.6914063,40.6835938 C32.5559896,35.3450521 36.641276,31.2434896 41.9472656,28.3789062 C47.2532552,25.5143229 53.6171875,24.0820312 61.0390625,24.0820312 L79.8867187,24.0820312 C82.0351563,24.0820312 83.890625,24.8470052 85.453125,26.3769531 C87.015625,27.906901 87.796875,29.7460938 87.796875,31.8945313 C87.796875,34.0429688 87.015625,35.8984375 85.453125,37.4609375 C83.890625,39.0234375 82.0351563,39.8046875 79.8867187,39.8046875 L61.0390625,39.8046875 C54.7890625,39.8046875 49.90625,41.5625 46.390625,45.078125 C42.875,48.59375 41.1171875,53.4765625 41.1171875,59.7265625 L41.1171875,78.1835938 C41.1171875,80.3320313 40.3522135,82.171224 38.8222656,83.7011719 C37.2923177,85.2311198 35.4205729,85.9960938 33.2070313,85.9960938 C31.0585938,85.9960938 29.219401,85.2311198 27.6894531,83.7011719 C26.1595052,82.171224 25.3945312,80.3320313 25.3945312,78.1835938 Z M25.3945312,161.09375 C25.3945312,158.945312 26.1595052,157.089844 27.6894531,155.527344 C29.219401,153.964844 31.0585938,153.183594 33.2070313,153.183594 C35.4205729,153.183594 37.2923177,153.964844 38.8222656,155.527344 C40.3522135,157.089844 41.1171875,158.945312 41.1171875,161.09375 L41.1171875,179.550781 C41.1171875,185.735677 42.875,190.602214 46.390625,194.150391 C49.90625,197.698568 54.7890625,199.472656 61.0390625,199.472656 L79.8867187,199.472656 C82.0351563,199.472656 83.890625,200.253906 85.453125,201.816406 C87.015625,203.378906 87.796875,205.234375 87.796875,207.382812 C87.796875,209.53125 87.015625,211.370443 85.453125,212.900391 C83.890625,214.430339 82.0351563,215.195312 79.8867187,215.195312 L61.0390625,215.195312 C53.6171875,215.195312 47.2532552,213.763021 41.9472656,210.898438 C36.641276,208.033854 32.5559896,203.932292 29.6914063,198.59375 C26.8268229,193.255208 25.3945312,186.907552 25.3945312,179.550781 L25.3945312,161.09375 Z" id="Shape"></path>
                    </g>
                    <g id="􀎼" opacity="0.5" transform="translate(3, 0)" fill="#FFFFFF" fill-rule="nonzero">
                        <path d="M216.605469,78.1835938 C216.605469,80.3320313 215.824219,82.171224 214.261719,83.7011719 C212.699219,85.2311198 210.84375,85.9960938 208.695312,85.9960938 C206.546875,85.9960938 204.707682,85.2311198 203.177734,83.7011719 C201.647786,82.171224 200.882813,80.3320313 200.882813,78.1835938 L200.882813,59.7265625 C200.882813,53.4765625 199.125,48.59375 195.609375,45.078125 C192.09375,41.5625 187.210938,39.8046875 180.960938,39.8046875 L162.015625,39.8046875 C159.867188,39.8046875 158.027995,39.0234375 156.498047,37.4609375 C154.968099,35.8984375 154.203125,34.0429688 154.203125,31.8945313 C154.203125,29.7460938 154.968099,27.906901 156.498047,26.3769531 C158.027995,24.8470052 159.867188,24.0820312 162.015625,24.0820312 L180.960938,24.0820312 C188.317708,24.0820312 194.665365,25.5143229 200.003906,28.3789062 C205.342448,31.2434896 209.44401,35.3450521 212.308594,40.6835938 C215.173177,46.0221354 216.605469,52.3697917 216.605469,59.7265625 L216.605469,78.1835938 Z M216.605469,161.09375 L216.605469,179.550781 C216.605469,186.907552 215.173177,193.255208 212.308594,198.59375 C209.44401,203.932292 205.342448,208.033854 200.003906,210.898438 C194.665365,213.763021 188.317708,215.195312 180.960938,215.195312 L162.015625,215.195312 C159.867188,215.195312 158.027995,214.430339 156.498047,212.900391 C154.968099,211.370443 154.203125,209.53125 154.203125,207.382812 C154.203125,205.234375 154.968099,203.378906 156.498047,201.816406 C158.027995,200.253906 159.867188,199.472656 162.015625,199.472656 L180.960938,199.472656 C187.210938,199.472656 192.09375,197.698568 195.609375,194.150391 C199.125,190.602214 200.882813,185.735677 200.882813,179.550781 L200.882813,161.09375 C200.882813,158.945312 201.647786,157.089844 203.177734,155.527344 C204.707682,153.964844 206.546875,153.183594 208.695312,153.183594 C210.84375,153.183594 212.699219,153.964844 214.261719,155.527344 C215.824219,157.089844 216.605469,158.945312 216.605469,161.09375 Z" id="Shape"></path>
                    </g>
                </g>
            </g>
        </g>
    </g>
</svg>