<?xml version="1.0" encoding="UTF-8"?>
<svg width="735px" height="189px" viewBox="0 0 735 189" version="1.1" xmlns="http://www.w3.org/2000/svg" xmlns:xlink="http://www.w3.org/1999/xlink">
    <title>Group</title>
    <g id="Page-1" stroke="none" stroke-width="1" fill="none" fill-rule="evenodd">
        <g id="Group" transform="translate(0, -2)">
            <g id="Two-Hearts" transform="translate(205, 0)" fill="#FFFFFF" fill-rule="nonzero">
                <polygon id="Path" points="35.1713867 132 49.9174805 132 49.9174805 73.6992188 70.3032227 73.6992188 70.3032227 61.5410156 14.7856445 61.5410156 14.7856445 73.6992188 35.1713867 73.6992188"></polygon>
                <polygon id="Path" points="82.5834961 132 97.5737305 132 106.973145 94.9882812 107.266113 94.9882812 116.763184 132 131.94873 132 145.815918 79.65625 131.729004 79.65625 123.794434 118.499023 123.501465 118.499023 114.150879 79.65625 100.503418 79.65625 91.2260742 118.499023 90.9331055 118.499023 82.9985352 79.65625 68.6430664 79.65625"></polygon>
                <path d="M174.648926,133.074219 C179.938639,133.074219 184.520345,131.991862 188.394043,129.827148 C192.267741,127.662435 195.266602,124.549642 197.390625,120.48877 C199.514648,116.427897 200.57666,111.549154 200.57666,105.852539 L200.57666,105.754883 C200.57666,100.09082 199.502441,95.2324219 197.354004,91.1796875 C195.205566,87.1269531 192.19043,84.0141602 188.308594,81.8413086 C184.426758,79.668457 179.865397,78.5820312 174.624512,78.5820312 C169.416178,78.5820312 164.871094,79.672526 160.989258,81.8535156 C157.107422,84.0345052 154.092285,87.1554362 151.943848,91.2163086 C149.79541,95.277181 148.721191,100.123372 148.721191,105.754883 L148.721191,105.852539 C148.721191,111.516602 149.779134,116.383138 151.89502,120.452148 C154.010905,124.521159 157.009766,127.64209 160.891602,129.814941 C164.773438,131.987793 169.359212,133.074219 174.648926,133.074219 Z M174.697754,121.892578 C172.354004,121.892578 170.323568,121.265951 168.606445,120.012695 C166.889323,118.75944 165.562826,116.936523 164.626953,114.543945 C163.691081,112.151367 163.223145,109.254232 163.223145,105.852539 L163.223145,105.754883 C163.223145,102.369466 163.69515,99.4886068 164.63916,97.1123047 C165.583171,94.7360026 166.913737,92.9171549 168.630859,91.6557617 C170.347982,90.3943685 172.345866,89.7636719 174.624512,89.7636719 C176.93571,89.7636719 178.94987,90.3902995 180.666992,91.6435547 C182.384115,92.8968099 183.714681,94.7156576 184.658691,97.1000977 C185.602702,99.4845378 186.074707,102.369466 186.074707,105.754883 L186.074707,105.852539 C186.074707,109.254232 185.61084,112.151367 184.683105,114.543945 C183.755371,116.936523 182.441081,118.75944 180.740234,120.012695 C179.039388,121.265951 177.025228,121.892578 174.697754,121.892578 Z" id="Shape"></path>
                <polygon id="Path" points="228.921387 132 243.66748 132 243.66748 102.336914 275.405762 102.336914 275.405762 132 290.151855 132 290.151855 61.5410156 275.405762 61.5410156 275.405762 90.1787109 243.66748 90.1787109 243.66748 61.5410156 228.921387 61.5410156"></polygon>
                <path d="M324.478027,133.074219 C328.205241,133.074219 331.464518,132.585938 334.255859,131.609375 C337.047201,130.632813 339.411296,129.330729 341.348145,127.703125 C343.284993,126.075521 344.81901,124.289225 345.950195,122.344238 C347.08138,120.399251 347.850423,118.466471 348.257324,116.545898 L348.379395,115.984375 L335.293457,115.984375 L335.195801,116.277344 C334.87028,117.270182 334.255859,118.238607 333.352539,119.182617 C332.449219,120.126628 331.281413,120.903809 329.849121,121.51416 C328.416829,122.124512 326.724121,122.429687 324.770996,122.429687 C322.297038,122.429687 320.164876,121.88444 318.374512,120.793945 C316.584147,119.703451 315.204753,118.132812 314.236328,116.082031 C313.267904,114.03125 312.783691,111.56543 312.783691,108.68457 L312.783691,103.142578 C312.783691,100.164062 313.267904,97.637207 314.236328,95.5620117 C315.204753,93.4868164 316.543457,91.9121094 318.252441,90.8378906 C319.961426,89.7636719 321.922689,89.2265625 324.13623,89.2265625 C326.349772,89.2265625 328.294759,89.7473958 329.971191,90.7890625 C331.647624,91.8307292 332.957845,93.3850911 333.901855,95.4521484 C334.845866,97.5192057 335.317871,100.082682 335.317871,103.142578 L335.317871,108.635742 L342.080566,100.237305 L305.728027,100.237305 L305.728027,109.22168 L348.818848,109.22168 L348.818848,104.827148 C348.818848,99.5537109 347.805664,94.9475911 345.779297,91.0087891 C343.75293,87.069987 340.876139,84.0141602 337.148926,81.8413086 C333.421712,79.668457 329.002767,78.5820312 323.89209,78.5820312 C318.781413,78.5820312 314.342122,79.7010091 310.574219,81.9389648 C306.806315,84.1769206 303.888835,87.3385417 301.821777,91.4238281 C299.75472,95.5091146 298.721191,100.326823 298.721191,105.876953 L298.721191,105.925781 C298.721191,111.492188 299.75472,116.309896 301.821777,120.378906 C303.888835,124.447917 306.847005,127.581055 310.696289,129.77832 C314.545573,131.975586 319.139486,133.074219 324.478027,133.074219 Z" id="Path"></path>
                <path d="M371.719238,132.830078 C374.01416,132.830078 376.142253,132.484212 378.103516,131.79248 C380.064779,131.100749 381.814453,130.10791 383.352539,128.813965 C384.890625,127.52002 386.156087,125.986003 387.148926,124.211914 L387.441895,124.211914 L387.441895,132 L401.699707,132 L401.699707,96.1113281 C401.699707,92.5957031 400.780111,89.5236003 398.940918,86.8950195 C397.101725,84.2664388 394.517904,82.2237956 391.189453,80.7670898 C387.861003,79.3103841 383.942546,78.5820312 379.434082,78.5820312 C374.827962,78.5820312 370.860677,79.2941081 367.532227,80.7182617 C364.203776,82.1424154 361.603678,84.1036784 359.731934,86.6020508 C357.860189,89.1004232 356.78597,91.9690755 356.509277,95.2080078 L356.460449,95.7939453 L369.497559,95.7939453 L369.595215,95.3300781 C369.953288,93.6373698 370.917643,92.2416992 372.488281,91.1430664 C374.058919,90.0444336 376.170736,89.4951172 378.82373,89.4951172 C381.62321,89.4951172 383.75944,90.1665039 385.232422,91.5092773 C386.705404,92.8520508 387.441895,94.6871745 387.441895,97.0146484 L387.441895,112.883789 C387.441895,114.69043 386.957682,116.318034 385.989258,117.766602 C385.020833,119.215169 383.702474,120.354492 382.03418,121.18457 C380.365885,122.014648 378.465658,122.429687 376.333496,122.429687 C373.875814,122.429687 371.910482,121.88444 370.4375,120.793945 C368.964518,119.703451 368.228027,118.197917 368.228027,116.277344 L368.228027,116.204102 C368.228027,114.348633 368.944173,112.859375 370.376465,111.736328 C371.808757,110.613281 373.900228,109.970378 376.650879,109.807617 L394.912598,108.611328 L394.912598,99.7490234 L374.502441,101.018555 C370.173014,101.295247 366.49056,102.088704 363.455078,103.398926 C360.419596,104.709147 358.104329,106.495443 356.509277,108.757812 C354.914225,111.020182 354.116699,113.746419 354.116699,116.936523 L354.116699,117.009766 C354.116699,120.085938 354.857259,122.816243 356.338379,125.200684 C357.819499,127.585124 359.882487,129.452799 362.527344,130.803711 C365.172201,132.154622 368.236165,132.830078 371.719238,132.830078 Z" id="Path"></path>
                <path d="M410.85498,132 L425.112793,132 L425.112793,102.703125 C425.112793,100.164063 425.548177,98.015625 426.418945,96.2578125 C427.289714,94.5 428.559245,93.1653646 430.227539,92.2539062 C431.895833,91.3424479 433.901855,90.8867188 436.245605,90.8867188 C437.287272,90.8867188 438.263835,90.9599609 439.175293,91.1064453 C440.086751,91.2529297 440.835449,91.4482422 441.421387,91.6923828 L441.421387,79.1435547 C440.884277,78.9807943 440.261719,78.8465169 439.553711,78.7407227 C438.845703,78.6349284 438.092936,78.5820312 437.29541,78.5820312 C434.25179,78.5820312 431.700521,79.4772135 429.641602,81.2675781 C427.582682,83.0579427 426.170736,85.5644531 425.405762,88.7871094 L425.112793,88.7871094 L425.112793,79.65625 L410.85498,79.65625 L410.85498,132 Z" id="Path"></path>
                <path d="M469.98584,133.074219 C471.46696,133.074219 472.785319,133.017253 473.940918,132.90332 C475.096517,132.789388 476.073079,132.667318 476.870605,132.537109 L476.870605,122.112305 C476.431152,122.161133 475.967285,122.209961 475.479004,122.258789 C474.990723,122.307617 474.429199,122.332031 473.794434,122.332031 C471.62972,122.332031 470.006185,121.855957 468.923828,120.903809 C467.841471,119.95166 467.300293,118.254883 467.300293,115.813477 L467.300293,90.3984375 L476.870605,90.3984375 L476.870605,79.65625 L467.300293,79.65625 L467.300293,66.8876953 L452.895996,66.8876953 L452.895996,79.65625 L445.620605,79.65625 L445.620605,90.3984375 L452.895996,90.3984375 L452.895996,117.375977 C452.895996,122.974935 454.291667,126.991048 457.083008,129.424316 C459.874349,131.857585 464.175293,133.074219 469.98584,133.074219 Z" id="Path"></path>
                <path d="M506.216309,133.074219 C510.708496,133.074219 514.675781,132.37028 518.118164,130.962402 C521.560547,129.554525 524.254232,127.576986 526.199219,125.029785 C528.144206,122.482585 529.116699,119.5 529.116699,116.082031 L529.116699,116.033203 C529.116699,113.461589 528.591797,111.256185 527.541992,109.416992 C526.492188,107.577799 524.8361,106.027507 522.57373,104.766113 C520.311361,103.50472 517.357259,102.491536 513.711426,101.726562 L504.800293,99.8466797 C503.058757,99.4560547 501.667155,99.0003255 500.625488,98.4794922 C499.583822,97.9586589 498.839193,97.3483073 498.391602,96.6484375 C497.94401,95.9485677 497.720215,95.1591797 497.720215,94.2802734 L497.720215,94.2314453 C497.720215,93.0921224 498.045736,92.1074219 498.696777,91.2773437 C499.347819,90.4472656 500.275553,89.804362 501.47998,89.3486328 C502.684408,88.8929036 504.100423,88.6650391 505.728027,88.6650391 C508.381022,88.6650391 510.464355,89.2916667 511.978027,90.5449219 C513.491699,91.7981771 514.362467,93.3606771 514.590332,95.2324219 L514.63916,95.6230469 L527.773926,95.6230469 L527.749512,95.1347656 C527.651855,92.0748698 526.736328,89.2957357 525.00293,86.7973633 C523.269531,84.2989909 520.783366,82.3051758 517.544434,80.815918 C514.305501,79.3266602 510.366699,78.5820312 505.728027,78.5820312 C501.300944,78.5820312 497.439453,79.257487 494.143555,80.6083984 C490.847656,81.9593099 488.300456,83.8595378 486.501953,86.309082 C484.703451,88.7586263 483.804199,91.6516927 483.804199,94.9882812 L483.804199,95.0371094 C483.804199,97.641276 484.373861,99.9443359 485.513184,101.946289 C486.652507,103.948242 488.357422,105.624674 490.62793,106.975586 C492.898438,108.326497 495.718262,109.360026 499.087402,110.076172 L507.998535,111.956055 C510.553874,112.525716 512.3361,113.237793 513.345215,114.092285 C514.354329,114.946777 514.858887,116.073893 514.858887,117.473633 L514.858887,117.522461 C514.858887,118.645508 514.513021,119.618001 513.821289,120.439941 C513.129557,121.261882 512.144857,121.892578 510.867188,122.332031 C509.589518,122.771484 508.047363,122.991211 506.240723,122.991211 C503.392415,122.991211 501.174805,122.41748 499.587891,121.27002 C498.000977,120.122559 496.979655,118.523437 496.523926,116.472656 L496.42627,116.033203 L482.510254,116.033203 L482.559082,116.472656 C482.949707,119.776693 484.093099,122.673828 485.989258,125.164062 C487.885417,127.654297 490.526204,129.595215 493.911621,130.986816 C497.297038,132.378418 501.3986,133.074219 506.216309,133.074219 Z" id="Path"></path>
            </g>
            <g transform="translate(0, 2)">
                <ellipse id="Oval" stroke="#FFFFFF" stroke-width="7" cx="94" cy="93.6" rx="61.5" ry="61.3"></ellipse>
                <text id="􀊵" font-family="SFPro-Regular, SF Pro" font-size="90.7439203" font-weight="normal" fill="#FFFFFF">
                    <tspan x="75" y="86">􀊵</tspan>
                </text>
                <text id="􀊵" font-family="SFPro-Regular, SF Pro" font-size="90.7439203" font-weight="normal" fill="#FFFFFF">
                    <tspan x="0" y="166.8">􀊵</tspan>
                </text>
            </g>
        </g>
    </g>
</svg>