<?xml version="1.0" encoding="UTF-8"?>
<svg width="977px" height="194px" viewBox="0 0 977 194" version="1.1" xmlns="http://www.w3.org/2000/svg" xmlns:xlink="http://www.w3.org/1999/xlink">
    <title>Group</title>
    <g id="Page-1" stroke="none" stroke-width="1" fill="none" fill-rule="evenodd">
        <g id="Frame-2" transform="translate(-18280, -7928)">
            <g id="Group" transform="translate(18280, 7928)">
                <g id="ImSpace" transform="translate(405.1172, 46.8164)" fill="#291600" fill-rule="nonzero">
                    <path d="M9.58496094,94.3896484 C15.6152344,94.3896484 19.1699219,90.7080078 19.1699219,84.4238281 L19.1699219,10.3466797 C19.1699219,3.99902344 15.6152344,0.317382812 9.58496094,0.317382812 C3.5546875,0.317382812 0,3.99902344 0,10.3466797 L0,84.4238281 C0,90.7080078 3.5546875,94.3896484 9.58496094,94.3896484 Z" id="Path"></path>
                    <path d="M42.0849609,94.5166016 C47.5439453,94.5166016 51.3525391,91.1523438 51.3525391,84.8681641 L51.3525391,52.1142578 C51.3525391,44.4970703 56.1132812,39.1650391 63.1591797,39.1650391 C70.0146484,39.1650391 74.140625,43.4814453 74.140625,50.78125 L74.140625,84.8681641 C74.140625,91.1523438 77.5683594,94.5166016 83.0273437,94.5166016 C88.5498047,94.5166016 91.9775391,91.1523438 91.9775391,84.8681641 L91.9775391,51.8603516 C91.9775391,44.3066406 96.6113281,39.1650391 103.657227,39.1650391 C110.830078,39.1650391 114.765625,43.4814453 114.765625,51.3525391 L114.765625,84.8681641 C114.765625,91.1523438 118.510742,94.5166016 123.969727,94.5166016 C129.492188,94.5166016 133.300781,91.1523438 133.300781,84.8681641 L133.300781,46.71875 C133.300781,33.0078125 124.350586,23.8671875 111.020508,23.8671875 C101.054688,23.8671875 92.9296875,29.2626953 89.8828125,37.8320313 L89.5019531,37.8320313 C87.2167969,28.9453125 80.3613281,23.8671875 70.5224609,23.8671875 C61.2548828,23.8671875 53.9550781,29.2626953 51.0986328,37.4511719 L50.7177734,37.4511719 L50.7177734,33.1982422 C50.7177734,26.9775391 47.0361328,23.7402344 41.7675781,23.7402344 C36.4990234,23.7402344 32.8173828,26.9775391 32.8173828,33.1982422 L32.8173828,84.8681641 C32.8173828,91.1523438 36.5625,94.5166016 42.0849609,94.5166016 Z" id="Path"></path>
                    <path d="M180.146484,94.7070312 C202.998047,94.7070312 217.026367,83.4082031 217.026367,65.5078125 C217.026367,51.6064453 208.647461,43.7988281 189.223633,39.9267578 L179.575195,37.9589844 C168.720703,35.8007813 164.34082,32.3095703 164.34082,26.6601563 C164.34082,19.9316406 170.625,15.4882812 180.083008,15.4882812 C187.954102,15.4882812 193.857422,18.3447266 196.904297,25.2636719 C199.0625,29.1992188 201.728516,30.9130859 206.044922,30.9130859 C210.932617,30.9130859 214.233398,27.8027344 214.233398,23.2324219 C214.233398,21.5820312 213.979492,20.2490234 213.535156,18.9794922 C209.472656,7.04589844 196.84082,0 180.083008,0 C159.707031,0 145.107422,11.1083984 145.107422,27.8662109 C145.107422,41.5136719 154.057617,50.2734375 172.338867,53.8916016 L182.050781,55.7958984 C193.540039,58.1445312 197.856445,61.5722656 197.856445,67.6025391 C197.856445,74.3310547 190.874023,79.2822266 180.59082,79.2822266 C171.831055,79.2822266 164.658203,76.1083984 161.674805,69.1259766 C159.389648,65.0634766 156.787109,63.5400391 152.851562,63.5400391 C147.900391,63.5400391 144.40918,66.9042969 144.40918,71.9824219 C144.40918,73.6962891 144.790039,75.4736328 145.424805,77.1240234 C149.106445,87.1533203 161.230469,94.7070312 180.146484,94.7070312 Z" id="Path"></path>
                    <path d="M236.386719,117.431641 C241.845703,117.431641 245.654297,114.130859 245.654297,107.783203 L245.654297,81.7578125 L246.035156,81.7578125 C249.65332,89.4384766 257.270508,94.2626953 267.172852,94.2626953 C284.18457,94.2626953 294.72168,81.0595703 294.72168,59.1601563 C294.72168,37.1972656 284.121094,24.0576172 266.855469,24.0576172 C257.016602,24.0576172 249.462891,29.0087891 245.78125,37.0068359 L245.400391,37.0068359 L245.400391,33.3251953 C245.400391,27.0410156 241.591797,23.7402344 236.259766,23.7402344 C230.927734,23.7402344 227.119141,27.0410156 227.119141,33.2617188 L227.119141,107.783203 C227.119141,114.130859 230.991211,117.431641 236.386719,117.431641 Z M260.634766,79.3457031 C251.557617,79.3457031 245.59082,71.4746094 245.59082,59.1601562 C245.59082,46.9726563 251.557617,38.9111328 260.634766,38.9111328 C269.902344,38.9111328 275.742188,46.8457031 275.742188,59.1601562 C275.742188,71.5380859 269.902344,79.3457031 260.634766,79.3457031 Z" id="Shape"></path>
                    <path d="M324.365234,94.2626953 C332.871094,94.2626953 341.376953,90.0097656 345.185547,82.7734375 L345.566406,82.7734375 L345.566406,86.2646484 C345.947266,91.7236328 349.438477,94.5166016 354.453125,94.5166016 C359.72168,94.5166016 363.466797,91.3427734 363.466797,85.1855469 L363.466797,46.4013672 C363.466797,32.6904297 352.104492,23.6767578 334.648438,23.6767578 C320.556641,23.6767578 309.638672,28.6914062 306.464844,36.8164062 C305.830078,38.2128906 305.512695,39.5458984 305.512695,41.0058594 C305.512695,45.1953125 308.75,48.1152344 313.256836,48.1152344 C316.240234,48.1152344 318.588867,46.9726562 320.620117,44.6875 C324.746094,39.3554688 328.173828,37.5146484 333.823242,37.5146484 C340.805664,37.5146484 345.249023,41.1962891 345.249023,47.5439453 L345.249023,52.0507812 L328.110352,53.0664062 C311.098633,54.0820312 301.577148,61.2548828 301.577148,73.6328125 C301.577148,85.8837891 311.416016,94.2626953 324.365234,94.2626953 Z M330.458984,80.8691406 C324.238281,80.8691406 320.048828,77.6953125 320.048828,72.6171875 C320.048828,67.7929688 323.984375,64.6826172 330.90332,64.1748047 L345.249023,63.2861328 L345.249023,68.2373047 C345.249023,75.6005859 338.583984,80.8691406 330.458984,80.8691406 Z" id="Shape"></path>
                    <path d="M406.44043,94.6435547 C419.453125,94.6435547 431.069336,88.1689453 435.131836,78.9013672 C435.957031,77.0605469 436.337891,75.5371094 436.337891,74.0771484 C436.337891,69.5068359 432.84668,66.6503906 428.530273,66.6503906 C424.594727,66.6503906 422.563477,68.2373047 420.087891,72.109375 C417.231445,76.9335937 413.232422,80.1074219 406.757813,80.1074219 C397.490234,80.1074219 391.713867,72.4902344 391.713867,59.0966797 C391.713867,45.9570312 397.490234,38.2128906 406.884766,38.2128906 C412.788086,38.2128906 416.914062,40.9423828 420.27832,46.9091797 C422.182617,50.2734375 424.404297,51.7333984 428.085938,51.7333984 C432.46582,51.7333984 436.020508,49.0673828 436.020508,44.4970703 C436.020508,43.1640625 435.639648,41.5136719 435.004883,39.9267578 C431.323242,30.2783203 419.960938,23.6767578 406.313477,23.6767578 C385.874023,23.6767578 372.924805,37.3876953 372.924805,59.1601562 C372.924805,81.1865234 385.9375,94.6435547 406.44043,94.6435547 Z" id="Path"></path>
                    <path d="M477.53418,94.6435547 C490.673828,94.6435547 501.210938,89.6923828 505.717773,81.3134766 C506.542969,79.7900391 506.987305,78.2666016 506.987305,76.8066406 C506.987305,72.5537109 503.75,70.0146484 499.750977,70.0146484 C497.338867,70.0146484 495.688477,70.7128906 493.720703,72.7441406 C488.706055,78.6474609 484.262695,80.9326172 477.470703,80.9326172 C468.076172,80.9326172 461.982422,74.3310547 461.982422,64.2382812 L461.982422,63.4130859 L500.830078,63.4130859 C505.97168,63.4130859 508.891602,60.4931641 508.891602,55.3515625 C508.891602,36.8798828 495.942383,23.6767578 476.645508,23.6767578 C456.523438,23.6767578 443.764648,37.578125 443.764648,59.4775391 C443.764648,81.5039063 456.269531,94.6435547 477.53418,94.6435547 Z M462.172852,52.0507812 C462.807617,43.3544922 468.710938,37.3876953 476.835938,37.3876953 C484.960938,37.3876953 490.673828,43.1640625 491.054688,52.0507812 L462.172852,52.0507812 Z" id="Shape"></path>
                </g>
                <g id="Logo_Stories" transform="translate(0, 18)">
                    <path d="M236.595391,42.0224719 C236.595391,55.5171932 227.927335,67.4145768 215.19394,71.845704 L207.445881,74.5419716 L208.260319,82.7052419 C208.48333,84.9405197 208.595391,87.2013562 208.595391,89.4831461 C208.595391,131.276932 170.713606,165.595391 123.5,165.595391 C76.2863938,165.595391 38.4046092,131.276932 38.4046092,89.4831461 C38.4046092,87.2052143 38.5162908,84.9410459 38.7382111,82.6944773 L39.5438529,74.5387121 L31.8036983,71.8450956 C19.0724115,67.4145376 10.4046092,55.5169099 10.4046092,42.0224719 C10.4046092,24.5868901 24.7480524,10.4046092 42.5,10.4046092 C52.1197144,10.4046092 61.0173235,14.5841663 67.0842428,21.6951454 L72.523317,28.0702332 L79.910954,24.1144662 C92.9687335,17.1225778 107.910242,13.3709014 123.5,13.3709014 C139.088769,13.3709014 154.030967,17.1221026 167.094707,24.113617 L174.482585,28.0674971 L179.920371,21.6922007 C185.983325,14.5839531 194.880543,10.4046092 204.5,10.4046092 C222.251948,10.4046092 236.595391,24.5868901 236.595391,42.0224719 Z" id="Combined-Shape" stroke="#291600" stroke-width="20.8092184"></path>
                    <ellipse id="Oval" fill="#291600" fill-rule="evenodd" cx="123.749711" cy="112.323792" rx="17.372986" ry="13.2346629"></ellipse>
                </g>
                <path d="M976.402344,54.1015625 C976.402344,56.25 975.621094,58.0891927 974.058594,59.6191406 C972.496094,61.1490885 970.640625,61.9140625 968.492188,61.9140625 C966.34375,61.9140625 964.504557,61.1490885 962.974609,59.6191406 C961.444661,58.0891927 960.679688,56.25 960.679688,54.1015625 L960.679688,35.6445313 C960.679688,29.3945312 958.921875,24.5117187 955.40625,20.9960937 C951.890625,17.4804687 947.007812,15.7226562 940.757812,15.7226562 L921.8125,15.7226562 C919.664062,15.7226562 917.82487,14.9414063 916.294922,13.3789063 C914.764974,11.8164063 914,9.9609375 914,7.8125 C914,5.6640625 914.764974,3.82486979 916.294922,2.29492187 C917.82487,0.764973958 919.664062,0 921.8125,0 L940.757812,0 C948.114583,0 954.46224,1.43229167 959.800781,4.296875 C965.139323,7.16145833 969.240885,11.2630208 972.105469,16.6015625 C974.970052,21.9401042 976.402344,28.2877604 976.402344,35.6445313 L976.402344,54.1015625 Z M976.402344,137.011719 L976.402344,155.46875 C976.402344,162.825521 974.970052,169.173177 972.105469,174.511719 C969.240885,179.85026 965.139323,183.951823 959.800781,186.816406 C954.46224,189.68099 948.114583,191.113281 940.757812,191.113281 L921.8125,191.113281 C919.664062,191.113281 917.82487,190.348307 916.294922,188.818359 C914.764974,187.288411 914,185.449219 914,183.300781 C914,181.152344 914.764974,179.296875 916.294922,177.734375 C917.82487,176.171875 919.664062,175.390625 921.8125,175.390625 L940.757812,175.390625 C947.007812,175.390625 951.890625,173.616536 955.40625,170.068359 C958.921875,166.520182 960.679688,161.653646 960.679688,155.46875 L960.679688,137.011719 C960.679688,134.863281 961.444661,133.007812 962.974609,131.445312 C964.504557,129.882812 966.34375,129.101562 968.492188,129.101562 C970.640625,129.101562 972.496094,129.882812 974.058594,131.445312 C975.621094,133.007812 976.402344,134.863281 976.402344,137.011719 Z" id="Shape" fill="#291600" fill-rule="nonzero" opacity="0.5"></path>
                <g opacity="0.5" transform="translate(343, 0)" fill="#291600" fill-rule="nonzero" id="Path">
                    <path d="M0,54.1015625 L0,35.6445313 C0,28.2877604 1.43229167,21.9401042 4.296875,16.6015625 C7.16145833,11.2630208 11.2467448,7.16145833 16.5527344,4.296875 C21.858724,1.43229167 28.2226563,0 35.6445312,0 L54.4921875,0 C56.640625,0 58.4960938,0.764973958 60.0585938,2.29492187 C61.6210938,3.82486979 62.4023438,5.6640625 62.4023438,7.8125 C62.4023438,9.9609375 61.6210938,11.8164063 60.0585938,13.3789063 C58.4960938,14.9414063 56.640625,15.7226562 54.4921875,15.7226562 L35.6445312,15.7226562 C29.3945312,15.7226562 24.5117188,17.4804687 20.9960938,20.9960937 C17.4804687,24.5117187 15.7226562,29.3945312 15.7226562,35.6445313 L15.7226562,54.1015625 C15.7226562,56.25 14.9576823,58.0891927 13.4277344,59.6191406 C11.8977865,61.1490885 10.0260417,61.9140625 7.8125,61.9140625 C5.6640625,61.9140625 3.82486979,61.1490885 2.29492188,59.6191406 C0.764973958,58.0891927 0,56.25 0,54.1015625 Z"></path>
                    <path d="M0,137.011719 C0,134.863281 0.764973958,133.007812 2.29492188,131.445312 C3.82486979,129.882812 5.6640625,129.101562 7.8125,129.101562 C10.0260417,129.101562 11.8977865,129.882812 13.4277344,131.445312 C14.9576823,133.007812 15.7226562,134.863281 15.7226562,137.011719 L15.7226562,155.46875 C15.7226562,161.653646 17.4804687,166.520182 20.9960938,170.068359 C24.5117188,173.616536 29.3945312,175.390625 35.6445312,175.390625 L54.4921875,175.390625 C56.640625,175.390625 58.4960938,176.171875 60.0585938,177.734375 C61.6210938,179.296875 62.4023438,181.152344 62.4023438,183.300781 C62.4023438,185.449219 61.6210938,187.288411 60.0585938,188.818359 C58.4960938,190.348307 56.640625,191.113281 54.4921875,191.113281 L35.6445312,191.113281 C28.2226563,191.113281 21.858724,189.68099 16.5527344,186.816406 C11.2467448,183.951823 7.16145833,179.85026 4.296875,174.511719 C1.43229167,169.173177 0,162.825521 0,155.46875 L0,137.011719 Z"></path>
                </g>
            </g>
        </g>
    </g>
</svg>